<svg width="49" height="49" viewBox="0 0 49 49" fill="none" xmlns="http://www.w3.org/2000/svg">
<path d="M44.2803 26.7241C44.2803 28.9441 42.5003 30.7241 40.2803 30.7241H8.28027C6.08027 30.7241 4.28027 28.9441 4.28027 26.7241C4.28027 24.5041 6.08027 22.7241 8.28027 22.7241H26.2803L31.2803 26.7241L36.2803 22.7241H40.2803C42.5003 22.7241 44.2803 24.5241 44.2803 26.7241ZM24.2803 6.72412C6.28027 6.72412 6.28027 18.7241 6.28027 18.7241H42.2803C42.2803 18.7241 42.2803 6.72412 24.2803 6.72412ZM6.28027 36.7241C6.28027 40.0441 8.96027 42.7241 12.2803 42.7241H36.2803C39.6003 42.7241 42.2803 40.0441 42.2803 36.7241V34.7241H6.28027V36.7241Z" fill="#D9A71F"/>
</svg>
